<svg width="49" height="48" viewBox="0 0 49 48" fill="none" xmlns="http://www.w3.org/2000/svg">
<path fill-rule="evenodd" clip-rule="evenodd" d="M35.0446 40.9274C38.3402 38.822 38.5232 39.0045 36.7839 40.2864C35.0446 41.5673 38.1571 39.7373 36.5096 40.9274L35.7774 41.6596C35.7774 41.6596 34.5872 43.0328 33.7632 43.1241C32.9392 43.2154 34.678 43.0328 33.4884 43.5825C32.2983 44.1312 23.5917 48.0596 9.50429 37.8149C13.4413 44.406 20.398 47.3354 26.2568 47.4267C26.2568 47.4267 24.4253 47.4267 25.4328 47.6098C26.4399 47.7928 24.9749 49.1655 16.3697 45.9622C16.7368 46.7857 16.8281 47.0601 17.8352 47.6098C17.8352 47.6098 6.57486 43.7645 2.63937 32.4139C2.73065 33.7866 2.82193 35.3434 2.82193 35.3434C2.82193 35.3434 -2.85438 25.2732 3.92078 12.8237C10.6949 0.374301 25.6164 -0.0830904 27.63 0.00818633C29.6442 0.0994631 40.903 2.66278 43.4663 5.31787C46.0301 7.97195 42.1854 6.23316 42.1854 6.23316C42.1854 6.23316 40.903 6.96539 43.0094 8.06323C45.1143 9.16259 47.4028 12.8237 45.663 11.4506C43.9242 10.0779 46.487 13.0986 46.7618 13.2816C47.0362 13.4647 42.9171 11.4506 44.016 12.6407C45.1143 13.8303 49.8743 19.0487 48.3186 20.6055C46.7618 22.1612 46.2122 17.8586 45.9378 17.5843C45.663 17.3089 46.3967 23.9005 45.9378 24.9983C45.4799 26.0972 45.5717 22.5278 44.6569 21.429C43.7416 20.3306 43.4663 20.4219 42.8253 20.4219C42.1854 20.4219 40.4461 18.6831 40.2625 17.6755C40.0795 16.6685 39.5303 16.3936 38.7058 15.5701C37.8823 14.7461 36.6009 13.9226 35.0446 14.0139C33.4884 14.1056 34.3124 12.1828 31.6573 12.1828C29.0027 12.1828 27.446 11.7259 25.158 12.7325C22.87 13.7395 18.6587 14.9292 18.2921 15.0204C17.926 15.1122 22.1368 12.7325 22.7782 12.3658C23.4187 12.0002 12.7998 14.7461 11.0605 18.9569C9.32073 23.1688 7.76549 30.3998 13.7156 36.9904C19.6658 43.5825 30.2841 44.2224 35.0446 40.9274Z" fill="#1C9AEA"/>
</svg>
